<svg width="1024" height="1024" viewBox="0 0 512 512" xmlns="http://www.w3.org/2000/svg" role="img" aria-label="Waterlogged app icon: a leaping tarpon over the Sunshine Skyway Bridge at sunset">
  <defs><clipPath id="sq"><rect x="0" y="0" width="512" height="512"/></clipPath></defs>
  <g clip-path="url(#sq)">
    <rect x="0" y="0" width="512" height="512" fill="#214a52"/>
    <rect x="0" y="0" width="512" height="150" fill="#1b3e46"/>
    <circle cx="256" cy="226" r="150" fill="#1d444c"/>
    <circle cx="256" cy="226" r="150" fill="none" stroke="#e9a648" stroke-width="3" opacity="0.5"/>
    <circle cx="256" cy="226" r="124" fill="#e2912f"/>
    <g stroke="#eaa942" stroke-width="5" stroke-linecap="round" opacity="0.85">
      <line x1="256" y1="40" x2="256" y2="66"/>
      <line x1="150" y1="72" x2="164" y2="94"/>
      <line x1="362" y1="72" x2="348" y2="94"/>
      <line x1="80" y1="150" x2="102" y2="164"/>
      <line x1="432" y1="150" x2="410" y2="164"/>
    </g>
    <rect x="0" y="346" width="512" height="166" fill="#15303a"/>
    <rect x="0" y="346" width="512" height="4" fill="#4f6f63"/>
    <g fill="#cf8a37" opacity="0.55">
      <rect x="226" y="362" width="60" height="6"/>
      <rect x="214" y="380" width="84" height="6"/>
      <rect x="232" y="398" width="48" height="6"/>
    </g>
    <g stroke="#d3a04a" stroke-width="3.2" stroke-linecap="round">
      <line x1="256" y1="120" x2="72" y2="342"/>
      <line x1="256" y1="120" x2="124" y2="342"/>
      <line x1="256" y1="120" x2="176" y2="342"/>
      <line x1="256" y1="120" x2="214" y2="342"/>
      <line x1="256" y1="120" x2="298" y2="342"/>
      <line x1="256" y1="120" x2="340" y2="342"/>
      <line x1="256" y1="120" x2="392" y2="342"/>
      <line x1="256" y1="120" x2="442" y2="342"/>
    </g>
    <path d="M28,352 Q256,330 484,352 L484,344 Q256,322 28,344 Z" fill="#11262f"/>
    <polygon points="248,346 254,116 258,116 264,346" fill="#11262f"/>
    <g transform="rotate(18 432 356)">
      <path d="M330,304 L440,276 C404,312 404,326 442,360 L342,332 C352,324 350,314 330,304 Z" fill="#f1e7cf" stroke="#14232a" stroke-width="6.5" stroke-linejoin="round"/>
      <path d="M104,196 C114,176 138,164 168,168 C216,176 262,200 300,234 C324,255 340,282 350,312 C336,328 316,338 292,340 C250,344 206,326 166,294 C136,270 116,236 104,196 Z" fill="#f1e7cf" stroke="#14232a" stroke-width="6.5" stroke-linejoin="round"/>
      <path d="M168,168 C216,176 262,200 300,234 C320,252 334,273 344,296 C326,266 295,236 260,216 C224,196 192,182 168,178 Z" fill="#2f5566"/>
      <path d="M180,178 C171,199 173,221 188,240" fill="none" stroke="#14232a" stroke-width="4.5" stroke-linecap="round"/>
      <g fill="none" stroke="#14232a" stroke-width="2.4" opacity="0.5" stroke-linecap="round">
        <path d="M236,212 C256,228 274,242 286,264"/>
        <path d="M264,208 C286,224 304,240 318,264"/>
        <path d="M292,210 C313,226 330,244 343,268"/>
      </g>
      <path d="M198,208 C248,230 300,264 346,314" fill="none" stroke="#14232a" stroke-width="2.4" stroke-dasharray="3 9" opacity="0.7"/>
      <path d="M196,238 C208,258 208,276 200,290 C186,276 180,256 184,238 Z" fill="#e6d8b6" stroke="#14232a" stroke-width="4"/>
      <path d="M300,224 C332,234 356,258 372,292" fill="none" stroke="#14232a" stroke-width="4" stroke-linecap="round"/>
      <circle cx="150" cy="194" r="12" fill="#f1e7cf" stroke="#14232a" stroke-width="4.5"/>
      <circle cx="150" cy="194" r="5" fill="#14232a"/>
      <path d="M104,196 C112,201 122,203 131,201" fill="none" stroke="#14232a" stroke-width="5" stroke-linecap="round"/>
      <path d="M110,186 C119,184 127,186 133,192" fill="none" stroke="#14232a" stroke-width="4" stroke-linecap="round"/>
    </g>
    <g fill="#f1e7cf">
      <circle cx="430" cy="340" r="7"/>
      <circle cx="452" cy="326" r="5"/>
      <circle cx="446" cy="356" r="4.5"/>
      <circle cx="414" cy="322" r="4"/>
    </g>
  </g>
</svg>
