<svg width="1024" height="1024" viewBox="0 0 512 512" xmlns="http://www.w3.org/2000/svg" role="img" aria-label="Waterlogged app icon: a poling skiff silhouette backlit by a striated sunset, with a tailing redfish">
  <defs>
    <clipPath id="sq"><rect x="0" y="0" width="512" height="512"/></clipPath>
    <clipPath id="sun"><circle cx="256" cy="300" r="150"/></clipPath>
  </defs>
  <g clip-path="url(#sq)">
    <rect x="0" y="0" width="512" height="512" fill="#c0683f"/>
    <rect x="0" y="0" width="512" height="142" fill="#b15a52"/>
    <rect x="0" y="250" width="512" height="82" fill="#d98a3a"/>
    <circle cx="256" cy="300" r="150" fill="#f3d489"/>
    <g clip-path="url(#sun)" stroke="#16222b" stroke-width="2.6" opacity="0.85">
      <line x1="104" y1="200" x2="408" y2="200"/><line x1="104" y1="218" x2="408" y2="218"/><line x1="104" y1="234" x2="408" y2="234"/><line x1="104" y1="248" x2="408" y2="248"/><line x1="104" y1="260" x2="408" y2="260"/><line x1="104" y1="270" x2="408" y2="270"/><line x1="104" y1="278" x2="408" y2="278"/><line x1="104" y1="285" x2="408" y2="285"/><line x1="104" y1="291" x2="408" y2="291"/><line x1="104" y1="296" x2="408" y2="296"/><line x1="104" y1="301" x2="408" y2="301"/><line x1="104" y1="306" x2="408" y2="306"/><line x1="104" y1="311" x2="408" y2="311"/><line x1="104" y1="316" x2="408" y2="316"/><line x1="104" y1="321" x2="408" y2="321"/><line x1="104" y1="326" x2="408" y2="326"/>
    </g>
    <rect x="0" y="332" width="512" height="180" fill="#14313b"/>
    <rect x="0" y="332" width="512" height="3" fill="#5b7d70"/>
    <g stroke="#e0934a" stroke-width="3" opacity="0.32" stroke-linecap="round">
      <line x1="214" y1="344" x2="298" y2="344"/><line x1="222" y1="354" x2="290" y2="354"/><line x1="230" y1="364" x2="282" y2="364"/><line x1="238" y1="374" x2="274" y2="374"/>
    </g>
    <!-- tailing redfish -->
    <g>
      <path d="M166,376 C168,357 176,343 187,335 C184,349 186,360 193,371 C184,367 174,370 166,376 Z" fill="#14222b"/>
      <circle cx="181" cy="360" r="4" fill="#f3d489"/>
      <path d="M156,378 C168,373 196,373 206,378" fill="none" stroke="#14222b" stroke-width="2" opacity="0.45"/>
    </g>
    <!-- ===== poling skiff ===== -->
    <g fill="#14222b">
      <path d="M88,322 C150,313 290,311 378,316 L410,318 L412,332 C360,347 150,349 104,334 C97,330 91,326 88,322 Z"/>
      <path d="M228,314 L228,292 C228,287 231,285 236,285 L252,285 C257,285 259,289 259,294 L259,314 Z"/>
      <path d="M356,316 L356,282 L361,282 L361,316 Z"/>
      <path d="M402,316 L402,282 L407,282 L407,316 Z"/>
      <path d="M348,283 L414,281 L414,287 L348,289 Z"/>
      <path d="M404,316 L422,316 L422,330 L416,346 L410,346 L404,332 Z"/>
      <circle cx="382" cy="217" r="9"/>
      <path d="M382,226 C390,228 392,241 390,255 L388,281 L382,268 L376,281 L374,253 C372,241 374,229 382,226 Z"/>
      <circle cx="150" cy="255" r="9"/>
      <path d="M150,264 C158,266 160,279 158,293 L156,314 L150,301 L144,314 L142,291 C140,279 142,267 150,264 Z"/>
    </g>
    <g stroke="#14222b" stroke-linecap="round" fill="none">
      <path d="M386,232 L399,223" stroke-width="6"/>
      <path d="M399,223 L470,352" stroke-width="4.5"/>
      <path d="M150,270 L130,260" stroke-width="6"/>
      <path d="M130,260 C112,244 102,224 100,205" stroke-width="3"/>
      <path d="M96,320 L86,349" stroke-width="4"/>
    </g>
  </g>
</svg>
